@startuml MDD
skinparam style strictuml
skinparam defaultfontname Verdana
hide empty members
left to right direction
title Domain model of Johnytech6's plugin

class "JohnytechPlugin" as jp

class "PluginHandler" as ph

class "DMHandler" as dmh

class "HeroHandler" as hh

class "PuppeterHandler" as puh

class "DndPlayer" as dndP{
playerReference :Player
chair_location :Location
checkpoint_location :Location
}

class "OfflineDndPlayer" as OdndP{
offlinePlayerRef :OfflinePlayer
}

class "Dm" as dm{
    isInvisible :boolean
    hasNightVision :boolean
    hasPuppeterPower :boolean
    hasTeftPower :boolean
}

class "Hero" as h{
    frozenState :boolean
}

class "Session" as ses{
    isStarted: boolean
}

class "Teft" as t

class "Puppeter" as pupter{
wasInvisible : boolean
hasNightVision : boolean
}

class "Puppet" as pup{
entity_reference : Entity
}

package "Listener" as l #PowderBlue{
class "ClickEntityListener"
class "DmInteractChest"
class "PlayerInteractArmorStandArmor"
class "PlayerJoinListener"
class "PlayerLeaveListener"
class "PlayerToggleSneakListener"
}

package "TabExecutor" as tabE #PowderBlue{
    class "DmCommand" as dmC
    class "HeroCommand" as hC
}

jp -- ph

jp -left- tabE : execute

jp -right- l : execute

ph "1" -- "1" dmh

ph "1" -- "1" hh

ph "1" -- "1" puh

puh -- pupter

ph "1" -right- "1.*" dndP : save
ph "1" -right- "1.*" OdndP : save

dndP "1" -- "1" dm : is a <
dndP "1" -right- "1" h : is a <

dm "1" -- "1" pupter : can be a

ses  --  dm : start <
ses  --  dm : end <

ph "1" -right- "1" ses : host

dm "1" -- "1" t : can be a

pupter "1" -right- "1"  pup : control a

right footer
Made by Johnytech6
end footer

@enduml